<svg width="315" height="391" viewBox="0 0 315 391" fill="none" xmlns="http://www.w3.org/2000/svg">
<path d="M257.302 141.007L304.528 46.6314L295.196 40.5163L240.76 129.563C239.119 132.232 235.599 133.022 232.971 131.304L231.195 130.135C228.631 128.451 227.915 125.014 229.593 122.446L286.744 34.985L278.538 29.6566L220.994 117.719C219.316 120.287 215.871 121.015 213.297 119.333C210.729 117.655 210.002 114.21 211.684 111.636L269.236 23.5614L260.195 17.6708L202.623 105.724C200.945 108.292 197.504 109.013 194.93 107.331L193.397 106.329C190.769 104.612 190.086 101.059 191.884 98.4922L252.342 12.4967L243.826 6.93215L179.07 83.4166C179.07 83.4166 176.77 86.3848 175.992 87.5756C167.602 100.415 167.217 115.465 170.477 129.335C173.183 140.836 176.866 149.936 172.674 161.512C164.212 179.531 143.408 199.312 131.25 214.478C88.3282 268.002 47.0865 335.831 47.0865 335.831L47.1226 335.855C47.0437 335.949 46.9451 336.048 46.8704 336.162C41.0897 345.008 44.7035 357.694 53.5464 363.507C53.5464 363.507 53.5824 363.53 53.6847 363.597C62.5553 369.393 75.8246 367.723 81.6132 358.864C81.6879 358.75 81.7505 358.628 81.7932 358.51L81.8293 358.534C81.8293 358.534 137.916 272.307 159.173 232.724C168.125 216.055 177.513 189.973 190.038 174.746C199.118 167.549 211.053 165.333 222.102 162.804C235.401 159.762 247.099 154.954 255.545 143.618C256.094 142.895 257.302 141.007 257.302 141.007Z" fill="#D0DCD9"/>
<path d="M16.766 166.531C53.8937 134.738 111.948 143.282 128.31 193.466C135.106 214.335 131.14 237.558 140.167 257.927C151.276 282.989 176.693 297.872 201.724 281.758C210.546 276.067 202.762 261.685 193.83 267.376C148.416 296.34 150.602 209.03 143.919 188.453C138.099 170.531 126.824 155.394 111.393 144.681C77.9401 121.468 36.9293 127.63 7.09732 153.289C-0.866172 160.134 8.73681 173.409 16.766 166.531Z" fill="#FE9F6B"/>
</svg>
